<svg id="Layer_1" data-name="Layer 1" xmlns="http://www.w3.org/2000/svg" viewBox="0 0 157 42"><defs><style>.cls-1{fill:#3056d3;}.cls-2{fill:none;stroke:#98aae9;stroke-linecap:round;stroke-linejoin:round;stroke-width:2px;}.cls-3{font-size:23.5px;fill:#fff;font-family:Poppins-SemiBold, Poppins;font-weight:600;}</style></defs><path class="cls-1" d="M27,13.37a3.09,3.09,0,0,1-.88,2.15c-1.3,1.31-2.57,2.68-3.92,3.94a.77.77,0,0,1-1.09,0l-3.89-3.92a3,3,0,0,1,4.29-4.3h0l.14.14.14-.14A3,3,0,0,1,26,11.06,3,3,0,0,1,27,13.37Z"/><path class="cls-2" d="M29.67,31.67l5.1-5.1A.81.81,0,0,0,35,26V19a2,2,0,0,0-2-2h0a2,2,0,0,0-2,2v6"/><path class="cls-2" d="M29.67,26.33l1.14-1.14a.66.66,0,0,0,.19-.46h0a.64.64,0,0,0-.36-.57l-.59-.3a2.68,2.68,0,0,0-3.08.5l-1.19,1.19A2.67,2.67,0,0,0,25,27.44v4.23m-11.33,0-5.1-5.1A.82.82,0,0,1,8.33,26V19a2,2,0,0,1,2-2h0a2,2,0,0,1,2,2v6"/><path class="cls-2" d="M13.67,26.33l-1.15-1.14a.73.73,0,0,1-.19-.46h0a.64.64,0,0,1,.36-.57l.59-.3a2.68,2.68,0,0,1,3.08.5l1.19,1.19a2.67,2.67,0,0,1,.78,1.89v4.23"/><text class="cls-3" transform="translate(45.12 29.59)">Donation</text></svg>